<svg width="38" height="38" viewBox="0 0 38 38" fill="none" xmlns="http://www.w3.org/2000/svg">
<g id="Artboard 6 " clip-path="url(#clip0_1_349)">
<path id="Vector" d="M27.46 0H9.98C4.4682 0 0 4.4682 0 9.98V27.46C0 32.9718 4.4682 37.44 9.98 37.44H27.46C32.9718 37.44 37.44 32.9718 37.44 27.46V9.98C37.44 4.4682 32.9718 0 27.46 0Z" fill="white"/>
<path id="Vector_2" fill-rule="evenodd" clip-rule="evenodd" d="M19.0714 13.79C18.867 13.7913 18.6649 13.8331 18.4766 13.9128C18.2884 13.9925 18.1178 14.1087 17.9747 14.2546C17.8316 14.4005 17.7187 14.5733 17.6426 14.763C17.5665 14.9528 17.5287 15.1557 17.5314 15.36V28.22C17.5628 28.6109 17.7402 28.9756 18.0283 29.2416C18.3165 29.5076 18.6942 29.6552 19.0864 29.6552C19.4785 29.6552 19.8563 29.5076 20.1444 29.2416C20.4326 28.9756 20.61 28.6109 20.6414 28.22V15.36C20.6414 14.9436 20.476 14.5443 20.1815 14.2499C19.8871 13.9554 19.4878 13.79 19.0714 13.79Z" fill="#73943D"/>
<path id="Vector_3" fill-rule="evenodd" clip-rule="evenodd" d="M27.2219 7.6499C27.017 7.65121 26.8144 7.69286 26.6257 7.77247C26.4369 7.85208 26.2657 7.96809 26.1217 8.11388C25.9778 8.25967 25.864 8.43238 25.7868 8.62215C25.7096 8.81192 25.6706 9.01504 25.6719 9.2199V28.2199C25.7033 28.6108 25.8807 28.9755 26.1689 29.2415C26.457 29.5074 26.8348 29.6551 27.2269 29.6551C27.619 29.6551 27.9968 29.5074 28.285 29.2415C28.5731 28.9755 28.7505 28.6108 28.7819 28.2199V9.2199C28.7832 9.0142 28.7438 8.81027 28.666 8.61984C28.5882 8.42942 28.4735 8.25627 28.3285 8.11035C28.1836 7.96443 28.0111 7.84862 27.8212 7.7696C27.6313 7.69058 27.4276 7.6499 27.2219 7.6499Z" fill="#73943D"/>
<path id="Vector_4" fill-rule="evenodd" clip-rule="evenodd" d="M10.07 20.5801C9.65361 20.5801 9.25427 20.7455 8.95984 21.0399C8.66541 21.3344 8.5 21.7337 8.5 22.1501V28.2201C8.53137 28.611 8.7088 28.9757 8.99696 29.2416C9.28512 29.5076 9.66287 29.6553 10.055 29.6553C10.4471 29.6553 10.8249 29.5076 11.113 29.2416C11.4012 28.9757 11.5786 28.611 11.61 28.2201V22.1501C11.6127 21.7381 11.4522 21.3417 11.1637 21.0476C10.8752 20.7534 10.482 20.5854 10.07 20.5801Z" fill="#73943D"/>
</g>
<defs>
<clipPath id="clip0_1_349">
<rect width="37.44" height="37.44" fill="white"/>
</clipPath>
</defs>
</svg>
