<svg width="42" height="42" viewBox="0 0 42 42" fill="none" xmlns="http://www.w3.org/2000/svg">
<path d="M13.2305 30.625C14.6852 37.3768 17.6159 42 21.0016 42C24.3874 42 27.3181 37.3768 28.7728 30.625H13.2305Z" fill="white"/>
<path d="M32.3284 11.3749H39.6493C37.3218 6.87494 33.4209 3.3335 28.668 1.46558C30.3473 4.08502 31.5717 7.5423 32.3284 11.3749Z" fill="white"/>
<path d="M29.3695 14.875H12.6305C12.3844 16.8134 12.25 18.8685 12.25 21C12.25 23.1315 12.3844 25.1866 12.6305 27.125H29.3695C29.6156 25.1866 29.75 23.1315 29.75 21C29.75 18.8685 29.6156 16.8134 29.3695 14.875Z" fill="#73943D"/>
<path d="M33.2483 21C33.2483 23.0589 33.1177 25.1178 32.8789 27.125H41.0848C41.6753 25.1866 41.9983 23.1315 41.9983 21C41.9983 18.8685 41.6753 16.8134 41.0848 14.875H32.8789C33.1177 16.8822 33.2483 18.9411 33.2483 21Z" fill="#73943D"/>
<path d="M28.7728 11.375C27.3181 4.62323 24.3874 0 21.0016 0C17.6159 0 14.6852 4.62323 13.2305 11.375H28.7728Z" fill="white"/>
<path d="M9.66852 30.625H2.34766C4.67508 35.125 8.57605 38.6664 13.3289 40.5343C11.6497 37.9149 10.4252 34.4576 9.66852 30.625Z" fill="white"/>
<path d="M8.75 21C8.75 18.9411 8.88052 16.8822 9.11935 14.875H0.913452C0.322998 16.8134 0 18.8685 0 21C0 23.1315 0.322998 25.1866 0.913452 27.125H9.11935C8.88052 25.1178 8.75 23.0589 8.75 21Z" fill="#73943D"/>
<path d="M32.3284 30.625C31.5717 34.4576 30.3473 37.9149 28.668 40.5343C33.4209 38.6664 37.3218 35.125 39.6493 30.625H32.3284Z" fill="white"/>
<path d="M9.66852 11.3749C10.4252 7.5423 11.6497 4.08502 13.3289 1.46558C8.57605 3.3335 4.67508 6.87494 2.34766 11.3749H9.66852Z" fill="white"/>
</svg>
