<svg width="42" height="42" viewBox="0 0 42 42" fill="none" xmlns="http://www.w3.org/2000/svg">
<g id="Artboard 8 " clip-path="url(#clip0_1_328)">
<path id="Vector" fill-rule="evenodd" clip-rule="evenodd" d="M41.9992 26.0001V30.3801C41.9351 32.8434 41.0855 35.2218 39.5744 37.1683C38.0633 39.1147 35.9698 40.5274 33.5992 41.2001C33.2703 41.2769 32.9281 41.2769 32.5992 41.2001C30.2624 40.5503 28.1948 39.1696 26.6992 37.2601C25.1049 35.3194 24.2227 32.8916 24.1992 30.3801V26.0001C24.2196 25.561 24.3587 25.1357 24.6017 24.7694C24.8447 24.4031 25.1826 24.1096 25.5792 23.9201L31.1392 21.6401C32.3981 21.1401 33.8004 21.1401 35.0592 21.6401L37.0592 22.4601L40.6392 23.9201C41.0321 24.1123 41.3659 24.407 41.6052 24.7731C41.8446 25.1392 41.9807 25.5631 41.9992 26.0001Z" fill="#73943D"/>
<path id="Vector_2" fill-rule="evenodd" clip-rule="evenodd" d="M37.8987 17.2701L37.5387 19.4101L36.1386 18.8501C34.1631 18.0505 31.9542 18.0505 29.9786 18.8501L24.3986 21.1501C23.4525 21.5634 22.6455 22.2407 22.0744 23.1009C21.5033 23.961 21.1923 24.9676 21.1786 26.0001V30.3801C21.194 32.7982 21.8421 35.1702 23.0586 37.2601H8.35865C6.98458 37.2228 5.66402 36.7194 4.61372 35.8327C3.56342 34.9459 2.8458 33.7284 2.57865 32.3801L0.0586504 17.2701C-0.0603237 16.246 0.068313 15.2083 0.433745 14.2442C0.799178 13.2802 1.39072 12.418 2.15865 11.7301L15.3187 1.21005C16.3739 0.416597 17.6584 -0.0124512 18.9786 -0.0124512C20.2989 -0.0124512 21.5834 0.416597 22.6386 1.21005L35.7986 11.7301C36.5626 12.421 37.1514 13.2837 37.5166 14.2469C37.8817 15.2101 38.0126 16.2463 37.8987 17.2701Z" fill="white"/>
</g>
<defs>
<clipPath id="clip0_1_328">
<rect width="42" height="41.25" fill="white"/>
</clipPath>
</defs>
</svg>
