<svg width="33" height="46" viewBox="0 0 33 46" fill="none" xmlns="http://www.w3.org/2000/svg">
<g clip-path="url(#clip0_1_369)">
<path fill-rule="evenodd" clip-rule="evenodd" d="M32.9174 43.125L27.4975 22.425C29.5056 19.9833 30.5914 16.9364 30.5711 13.8C30.5747 11.5904 30.0369 9.41215 29.003 7.44862C27.9691 5.48508 26.4693 3.79363 24.6298 2.51653C22.7903 1.23944 20.6648 0.414033 18.4322 0.109746C16.1996 -0.194542 13.925 0.0311841 11.7999 0.767939C9.67476 1.50469 7.76118 2.73093 6.2201 4.34352C4.67901 5.95611 3.55548 7.9079 2.944 10.0347C2.33252 12.1615 2.25098 14.4012 2.70623 16.5654C3.16147 18.7295 4.1402 20.7549 5.56009 22.471L0.0698664 43.125C-0.045577 43.5656 -0.0251646 44.0298 0.128523 44.459C0.282818 44.8902 0.564616 45.2665 0.937979 45.54C1.30843 45.8139 1.75343 45.974 2.21668 46C2.67347 46.0194 3.12607 45.9075 3.51885 45.678L16.0244 38.479L29.3276 45.701C29.6796 45.9129 30.088 46.017 30.5007 46C30.868 46.0115 31.2331 45.9407 31.5683 45.793C31.8978 45.642 32.1869 45.4179 32.4129 45.1385C32.6389 44.8591 32.7956 44.532 32.8704 44.183C32.9584 43.8356 32.9584 43.4724 32.8704 43.125H32.9174ZM16.4936 4.60004C18.3522 4.5994 20.1691 5.13973 21.714 6.15254C22.8679 6.9085 23.8365 7.90593 24.5498 9.07299C25.2632 10.24 25.7036 11.5477 25.8393 12.9017C25.9751 14.2557 25.8028 15.6223 25.3349 16.9032C24.8671 18.1841 24.1152 19.3473 23.1335 20.309C22.0419 21.3779 20.6984 22.1665 19.2218 22.6049C17.7452 23.0434 16.1812 23.1182 14.668 22.8229C13.1549 22.5275 11.7394 21.871 10.5468 20.9114C9.35426 19.9519 8.42139 18.7189 7.8308 17.3217C7.24022 15.9245 7.01014 14.4061 7.16093 12.9009C7.31172 11.3957 7.83873 9.95015 8.69531 8.69224C9.55188 7.43432 10.7116 6.40282 12.0718 5.68904C13.432 4.97527 14.9508 4.60123 16.4936 4.60004Z" fill="white"/>
<path fill-rule="evenodd" clip-rule="evenodd" d="M23.5814 13.7999C23.5814 15.1646 23.1686 16.4986 22.3952 17.6333C21.6217 18.768 20.5224 19.6524 19.2363 20.1747C17.9501 20.6969 16.5348 20.8336 15.1695 20.5673C13.8041 20.3011 12.5499 19.6439 11.5655 18.6789C10.5811 17.714 9.91075 16.4845 9.63916 15.146C9.36757 13.8076 9.50696 12.4202 10.0397 11.1594C10.5724 9.89858 11.4746 8.82094 12.6321 8.06276C13.7897 7.30458 15.1505 6.8999 16.5427 6.8999C18.4095 6.8999 20.1998 7.62686 21.5198 8.92087C22.8398 10.2149 23.5814 11.9699 23.5814 13.7999Z" fill="#73943D"/>
</g>
<defs>
<clipPath id="clip0_1_369">
<rect width="33" height="46" fill="white"/>
</clipPath>
</defs>
</svg>
