<svg width="42" height="42" viewBox="0 0 42 42" fill="none" xmlns="http://www.w3.org/2000/svg">
<path d="M20.8045 9.98242C14.9321 9.98242 10.0664 14.7642 10.0664 20.7205C10.0664 26.6768 14.8482 31.4586 20.8045 31.4586C26.7608 31.4586 31.5426 26.5929 31.5426 20.7205C31.5426 14.8481 26.6769 9.98242 20.8045 9.98242ZM20.8045 27.5996C17.0294 27.5996 13.9254 24.4956 13.9254 20.7205C13.9254 16.9454 17.0294 13.8414 20.8045 13.8414C24.5796 13.8414 27.6836 16.9454 27.6836 20.7205C27.6836 24.4956 24.5796 27.5996 20.8045 27.5996Z" fill="#8E8E8E"/>
<path d="M31.9641 12.1645C33.3077 12.1645 34.3969 11.0753 34.3969 9.73167C34.3969 8.38805 33.3077 7.29883 31.9641 7.29883C30.6205 7.29883 29.5312 8.38805 29.5312 9.73167C29.5312 11.0753 30.6205 12.1645 31.9641 12.1645Z" fill="#8E8E8E"/>
<path d="M38.2544 3.43954C36.0732 1.17448 32.9692 0 29.4458 0H12.1642C4.86569 0 0 4.86569 0 12.1642V29.3619C0 32.9692 1.17448 36.0732 3.52343 38.3383C5.78849 40.5195 8.80858 41.61 12.2481 41.61H29.3619C32.9692 41.61 35.9893 40.4356 38.1705 38.3383C40.4356 36.1571 41.61 33.0531 41.61 29.4458V12.1642C41.61 8.64079 40.4356 5.62071 38.2544 3.43954ZM37.9188 29.4458C37.9188 32.0464 36.996 34.1437 35.486 35.5699C33.9759 36.996 31.8787 37.751 29.3619 37.751H12.2481C9.73138 37.751 7.6341 36.996 6.12406 35.5699C4.61402 34.0598 3.859 31.9626 3.859 29.3619V12.1642C3.859 9.64749 4.61402 7.55021 6.12406 6.04017C7.55021 4.61402 9.73138 3.859 12.2481 3.859H29.5297C32.0464 3.859 34.1437 4.61402 35.6538 6.12406C37.0799 7.6341 37.9188 9.73138 37.9188 12.1642V29.4458Z" fill="#8E8E8E"/>
</svg>
