<svg width="40" height="38" viewBox="0 0 40 38" fill="none" xmlns="http://www.w3.org/2000/svg">
<path d="M0.507238 12.3597H9.07971V38H0.507238V12.3597ZM4.85086 0C1.91686 0 0 1.91446 0 4.42726C0 6.88838 1.86076 8.8585 4.73867 8.8585H4.79333C7.78343 8.8585 9.64552 6.88828 9.64552 4.42726C9.58943 1.91446 7.78352 0 4.85086 0ZM30.1275 11.7574C25.5771 11.7574 23.5386 14.245 22.4013 15.9896V12.3597H13.8263C13.9398 14.7651 13.8263 38 13.8263 38H22.4013V23.6807C22.4013 22.9137 22.4574 22.1497 22.683 21.6003C23.3039 20.0693 24.7148 18.4838 27.0813 18.4838C30.1863 18.4838 31.4263 20.8362 31.4263 24.2815V37.9999H40V23.2973C40 15.4218 35.7712 11.7574 30.1275 11.7574Z" fill="#8E8E8E"/>
</svg>
