<svg width="51" height="38" viewBox="0 0 51 38" fill="none" xmlns="http://www.w3.org/2000/svg">
<g clip-path="url(#clip0_1_400)">
<path fill-rule="evenodd" clip-rule="evenodd" d="M25.3841 25.0325C17.3863 25.0325 10.6404 26.3743 10.6404 31.54C10.6404 36.7056 17.3863 38 25.3841 38C33.3818 38 40.1277 36.6581 40.1277 31.4925C40.1277 26.3268 33.3354 25.0325 25.3841 25.0325Z" fill="#73943D"/>
<path fill-rule="evenodd" clip-rule="evenodd" d="M25.3847 20.1043C26.6707 20.1059 27.9443 19.8468 29.1321 19.3419C30.3199 18.837 31.3985 18.0963 32.3056 17.1625C33.2128 16.2287 33.9307 15.1202 34.4179 13.9009C34.905 12.6816 35.1519 11.3756 35.1443 10.0581C35.1443 7.40624 34.116 4.86302 32.2858 2.98789C30.4555 1.11276 27.9731 0.0593262 25.3847 0.0593262C22.7963 0.0593262 20.3139 1.11276 18.4837 2.98789C16.6534 4.86302 15.6252 7.40624 15.6252 10.0581C15.6175 11.3756 15.8644 12.6816 16.3516 13.9009C16.8388 15.1202 17.5566 16.2287 18.4638 17.1625C19.371 18.0963 20.4495 18.837 21.6373 19.3419C22.8251 19.8468 24.0987 20.1059 25.3847 20.1043Z" fill="white"/>
<path fill-rule="evenodd" clip-rule="evenodd" d="M46.5723 12.3975C46.8974 11.1451 46.9388 9.8332 46.6933 8.56195C46.4478 7.2907 45.9219 6.09376 45.1559 5.06258C44.3898 4.03139 43.4038 3.19325 42.2732 2.61219C41.1426 2.03113 39.8973 1.72253 38.6325 1.70996C38.0795 1.71447 37.5283 1.77412 36.9866 1.88809C36.9488 1.89169 36.9123 1.9043 36.8801 1.92492C36.8479 1.94554 36.8208 1.97359 36.8011 2.00684C36.7729 2.04425 36.7576 2.09019 36.7576 2.13746C36.7576 2.18473 36.7729 2.23067 36.8011 2.26809C38.38 4.54676 39.2521 7.25993 39.3038 10.0539C39.3555 12.8478 38.5843 15.5929 37.0909 17.9312C37.0574 17.9836 37.0371 18.0437 37.0317 18.1062C37.0264 18.1686 37.0362 18.2314 37.0603 18.289C37.0844 18.3466 37.122 18.3972 37.1698 18.4363C37.2176 18.4754 37.2741 18.5018 37.3343 18.5131C37.7172 18.5811 38.1048 18.6168 38.4934 18.62C40.3285 18.6721 42.1267 18.0852 43.5941 16.9549C45.0615 15.8247 46.1114 14.2181 46.5723 12.3975Z" fill="white"/>
<path fill-rule="evenodd" clip-rule="evenodd" d="M50.5605 25.6856C49.865 24.1537 48.1728 23.1087 45.6228 22.5981C43.1457 22.1007 40.6241 21.8738 38.1003 21.9212C38.0837 21.9209 38.0675 21.9268 38.0548 21.9377C38.042 21.9486 38.0335 21.9638 38.0307 21.9806C38.0184 21.9955 38.0117 22.0144 38.0117 22.034C38.0117 22.0535 38.0184 22.0725 38.0307 22.0874C39.4448 22.8118 44.8693 25.9231 44.1855 32.5018C44.1781 32.5676 44.1853 32.6342 44.2065 32.6967C44.2278 32.7593 44.2626 32.8161 44.3083 32.8629C44.354 32.9097 44.4094 32.9453 44.4704 32.9671C44.5315 32.9889 44.5965 32.9963 44.6607 32.9887C45.9937 32.7868 49.4362 32.0268 50.4562 29.6518C50.7641 29.0415 50.9334 28.3677 50.9515 27.6809C50.9695 26.9941 50.8359 26.312 50.5605 25.6856Z" fill="#73943D"/>
<path fill-rule="evenodd" clip-rule="evenodd" d="M14.0127 1.85244C13.471 1.73848 12.9197 1.67882 12.3667 1.67432C11.1021 1.68636 9.85697 1.99475 8.72664 2.57589C7.59631 3.15702 6.61079 3.99548 5.84556 5.02704C5.08032 6.0586 4.55568 7.25591 4.3118 8.52726C4.06792 9.79861 4.11129 11.1103 4.43856 12.3618C4.90074 14.1885 5.95583 15.7998 7.43039 16.9306C8.90495 18.0615 10.7112 18.6447 12.5522 18.5843C12.9404 18.5749 13.3276 18.5392 13.7113 18.4774C13.7715 18.4661 13.828 18.4398 13.8758 18.4007C13.9236 18.3616 13.9612 18.311 13.9853 18.2534C14.0094 18.1958 14.0192 18.133 14.0139 18.0705C14.0085 18.0081 13.9882 17.948 13.9547 17.8956C12.4459 15.627 11.6381 12.9458 11.6365 10.2006C11.6298 7.33496 12.4925 4.53804 14.1054 2.19682C14.1336 2.1594 14.1489 2.11346 14.1489 2.06619C14.1489 2.01892 14.1336 1.97298 14.1054 1.93557C14.0819 1.90017 14.05 1.87154 14.0127 1.85244Z" fill="white"/>
<path fill-rule="evenodd" clip-rule="evenodd" d="M5.37819 22.5625C2.82819 23.0731 1.13592 24.1181 0.440461 25.65C0.137907 26.2778 -0.0194702 26.9686 -0.0194702 27.6687C-0.0194702 28.3689 0.137907 29.0597 0.440461 29.6875C1.50683 32.0625 4.94933 32.8225 6.23592 33.0244C6.30012 33.032 6.36516 33.0246 6.4262 33.0028C6.48723 32.981 6.54266 32.9454 6.58836 32.8986C6.63406 32.8518 6.66884 32.795 6.6901 32.7324C6.71136 32.6699 6.71856 32.6033 6.71114 32.5375C6.02728 25.9587 11.4518 22.8475 12.8659 22.135C12.8774 22.1174 12.8835 22.0968 12.8835 22.0756C12.8835 22.0545 12.8774 22.0338 12.8659 22.0162C12.8632 21.9995 12.8546 21.9843 12.8419 21.9734C12.8291 21.9625 12.813 21.9566 12.7964 21.9569C10.3098 21.8935 7.82358 22.0965 5.37819 22.5625Z" fill="#73943D"/>
</g>
<defs>
<clipPath id="clip0_1_400">
<rect width="51" height="38" fill="white"/>
</clipPath>
</defs>
</svg>
