<svg width="39" height="44" viewBox="0 0 39 44" fill="none" xmlns="http://www.w3.org/2000/svg">
<g clip-path="url(#clip0_1_391)">
<path fill-rule="evenodd" clip-rule="evenodd" d="M28.7455 15.092C28.5424 15.0935 28.341 15.0547 28.1531 14.9778C27.9651 14.9009 27.7944 14.7875 27.6507 14.6442C27.5071 14.501 27.3934 14.3306 27.3164 14.1431C27.2393 13.9556 27.2004 13.7547 27.2019 13.552V10.736C27.1976 9.6653 26.9695 8.60722 26.5322 7.62938C26.0949 6.65154 25.458 5.77544 24.6621 5.05703C23.8662 4.33863 22.9289 3.79371 21.91 3.45709C20.8911 3.12047 19.8131 2.99955 18.7447 3.10204C15.0399 3.45404 11.7981 7.21604 11.7981 11.132V13.112C11.7981 13.5205 11.6355 13.9122 11.346 14.201C11.0565 14.4898 10.6639 14.652 10.2545 14.652C9.84504 14.652 9.4524 14.4898 9.1629 14.201C8.87341 13.9122 8.71077 13.5205 8.71077 13.112V11.132C8.71077 5.63204 13.1213 0.55004 18.436 0.0440405C19.932 -0.101628 21.4421 0.0663485 22.8693 0.537191C24.2965 1.00803 25.6092 1.77134 26.7233 2.77813C27.8373 3.78491 28.7281 5.01293 29.3384 6.38338C29.9487 7.75383 30.2651 9.23643 30.2672 10.736V13.552C30.2686 13.7528 30.2304 13.9519 30.1547 14.138C30.0791 14.3241 29.9674 14.4934 29.8261 14.6364C29.6848 14.7794 29.5166 14.8933 29.3312 14.9715C29.1458 15.0496 28.9468 15.0906 28.7455 15.092Z" fill="#73943D"/>
<path fill-rule="evenodd" clip-rule="evenodd" d="M37.06 15.3229C35.2075 13.2659 32.1643 12.2759 27.7097 12.2759H11.3025C6.89202 12.2759 3.80466 13.2659 1.95224 15.3229C-0.186858 17.6989 -0.1207 20.8999 0.121878 23.0999L1.66556 35.3649C2.12866 39.5999 3.87082 43.9999 13.3534 43.9999H25.6588C35.1414 43.9999 36.8835 39.5999 37.3466 35.3319L38.8903 23.0999C39.1329 20.8999 39.177 17.7539 37.06 15.3999V15.3229ZM11.6113 24.5299C11.1751 24.5299 10.7488 24.4009 10.3861 24.1591C10.0234 23.9174 9.74079 23.5738 9.57388 23.1718C9.40697 22.7698 9.3633 22.3274 9.44839 21.9007C9.53348 21.4739 9.74351 21.0819 10.0519 20.7742C10.3603 20.4666 10.7533 20.257 11.1811 20.1722C11.6088 20.0873 12.0522 20.1308 12.4552 20.2973C12.8582 20.4639 13.2026 20.7458 13.4449 21.1076C13.6872 21.4694 13.8165 21.8948 13.8165 22.3299C13.8165 22.9134 13.5842 23.4729 13.1706 23.8855C12.7571 24.2981 12.1961 24.5299 11.6113 24.5299ZM27.0481 24.5299C26.6119 24.5299 26.1856 24.4009 25.8229 24.1591C25.4603 23.9174 25.1776 23.5738 25.0107 23.1718C24.8438 22.7698 24.8001 22.3274 24.8852 21.9007C24.9703 21.4739 25.1803 21.0819 25.4887 20.7742C25.7971 20.4666 26.1901 20.257 26.6179 20.1722C27.0456 20.0873 27.489 20.1308 27.892 20.2973C28.295 20.4639 28.6394 20.7458 28.8817 21.1076C29.124 21.4694 29.2533 21.8948 29.2533 22.3299C29.2534 22.6206 29.1956 22.9085 29.0834 23.1769C28.9712 23.4453 28.8068 23.6888 28.5997 23.8933C28.3925 24.0979 28.1468 24.2595 27.8767 24.3688C27.6066 24.478 27.3175 24.5328 27.026 24.5299H27.0481Z" fill="white"/>
</g>
<defs>
<clipPath id="clip0_1_391">
<rect width="39" height="44" fill="white"/>
</clipPath>
</defs>
</svg>
