<svg width="40" height="40" viewBox="0 0 40 40" fill="none" xmlns="http://www.w3.org/2000/svg">
<g clip-path="url(#clip0_1_338)">
<path fill-rule="evenodd" clip-rule="evenodd" d="M19.9297 9.05518e-05C15.9741 9.05518e-05 12.1073 1.17307 8.81829 3.3707C5.52931 5.56833 2.96586 8.6919 1.45211 12.3464C-0.0616468 16.0009 -0.457714 20.0223 0.313991 23.9019C1.0857 27.7815 2.99051 31.3452 5.78756 34.1422C8.58461 36.9393 12.1483 38.8441 16.0279 39.6158C19.9075 40.3875 23.9288 39.9914 27.5834 38.4777C31.2379 36.9639 34.3615 34.4005 36.5591 31.1115C38.7567 27.8225 39.9297 23.9557 39.9297 20.0001C39.9376 17.3714 39.4257 14.7671 38.4234 12.3371C37.4211 9.90697 35.9482 7.69904 34.0895 5.84029C32.2307 3.98154 30.0228 2.50865 27.5927 1.50637C25.1626 0.504077 22.5584 -0.00783113 19.9297 9.05518e-05ZM26.3797 30.7101L19.9997 26.8401L13.5797 30.7101C13.4124 30.8444 13.2064 30.9214 12.992 30.9297C12.7777 30.9379 12.5663 30.877 12.3892 30.756C12.2121 30.6349 12.0786 30.4601 12.0085 30.2574C11.9384 30.0546 11.9353 29.8347 11.9997 29.6301L13.6997 22.3301L8.0797 17.4401C7.92802 17.3113 7.81821 17.1402 7.76433 16.9486C7.71044 16.7571 7.71493 16.5538 7.7772 16.3648C7.83948 16.1759 7.95673 16.0097 8.11393 15.8878C8.27114 15.7658 8.46117 15.6935 8.6597 15.6801L16.1197 15.0001L18.9997 8.16009C19.0765 7.9797 19.2047 7.82588 19.3683 7.71777C19.5319 7.60965 19.7236 7.55201 19.9197 7.55201C20.1158 7.55201 20.3075 7.60965 20.4711 7.71777C20.6347 7.82588 20.7629 7.9797 20.8397 8.16009L23.7797 15.0001L31.2497 15.6401C31.4457 15.6587 31.6319 15.7348 31.7849 15.8589C31.9379 15.9829 32.0508 16.1494 32.1095 16.3373C32.1683 16.5253 32.1702 16.7264 32.1151 16.9155C32.06 17.1046 31.9503 17.2731 31.7997 17.4001L26.1597 22.2901L27.8497 29.6101C27.8901 29.7985 27.8751 29.9946 27.8067 30.1747C27.7383 30.3549 27.6193 30.5114 27.464 30.6255C27.3087 30.7396 27.1237 30.8064 26.9314 30.8178C26.739 30.8293 26.5474 30.7849 26.3797 30.6901V30.7101Z" fill="white"/>
<path fill-rule="evenodd" clip-rule="evenodd" d="M19.9984 28.7501L26.5684 32.7501C26.8375 32.9206 27.1519 33.0058 27.4703 32.9944C27.7886 32.983 28.0962 32.8757 28.3525 32.6865C28.6087 32.4972 28.8018 32.2349 28.9064 31.934C29.011 31.633 29.0221 31.3075 28.9384 31.0001L27.1984 23.5401L33.0084 18.5401C33.2437 18.3368 33.4138 18.0686 33.4973 17.7691C33.5809 17.4696 33.5742 17.152 33.4781 16.8563C33.382 16.5605 33.2008 16.2997 32.9571 16.1065C32.7135 15.9133 32.4182 15.7963 32.1084 15.7701L24.4584 15.1201L21.4684 8.00011C21.3454 7.71495 21.1416 7.47205 20.8821 7.30139C20.6227 7.13074 20.3189 7.03979 20.0084 7.03979C19.6978 7.03979 19.3941 7.13074 19.1346 7.30139C18.8751 7.47205 18.6713 7.71495 18.5484 8.00011L15.5484 15.0501L7.89836 15.7001C7.58392 15.7223 7.28331 15.8381 7.03519 16.0325C6.78706 16.2269 6.60276 16.4911 6.50599 16.7911C6.40921 17.0911 6.40439 17.4132 6.49213 17.716C6.57987 18.0187 6.75617 18.2883 6.99836 18.4901L12.8084 23.4901L11.0784 31.0001C11.0073 31.3033 11.0274 31.6207 11.1362 31.9124C11.245 32.2042 11.4375 32.4573 11.6896 32.64C11.9418 32.8227 12.2423 32.9268 12.5534 32.9393C12.8645 32.9518 13.1724 32.872 13.4384 32.7101L20.0084 28.7101L19.9984 28.7501Z" fill="#73943D"/>
</g>
<defs>
<clipPath id="clip0_1_338">
<rect width="39.91" height="39.91" fill="white"/>
</clipPath>
</defs>
</svg>
