<svg width="44" height="41" viewBox="0 0 44 41" fill="none" xmlns="http://www.w3.org/2000/svg">
<g clip-path="url(#clip0_1_410)">
<path fill-rule="evenodd" clip-rule="evenodd" d="M24.2011 1.32708L29.1071 11.0376C29.2847 11.3813 29.5447 11.6776 29.8646 11.9012C30.1845 12.1248 30.5549 12.2691 30.9441 12.3216L41.9441 13.8968C42.5906 13.9825 43.1761 14.3162 43.5721 14.8247C43.9277 15.2862 44.0984 15.8596 44.0518 16.4363C44.0052 17.013 43.7445 17.5529 43.3191 17.9537L35.3551 25.5063C35.0689 25.7678 34.8537 26.0951 34.7289 26.4587C34.604 26.8223 34.5735 27.2106 34.6401 27.5887L36.6091 38.2487C36.7107 38.8765 36.5549 39.5183 36.1757 40.0338C35.7964 40.5493 35.2246 40.8967 34.5851 41C34.0388 41.0773 33.4818 40.9748 33.0011 40.7087L23.1781 35.6916C22.8194 35.5159 22.424 35.4244 22.0231 35.4244C21.6222 35.4244 21.2268 35.5159 20.8681 35.6916L11.0561 40.7087C10.4789 41.0054 9.80682 41.0711 9.1812 40.8921C8.55558 40.713 8.02506 40.3031 7.7011 39.7484C7.45943 39.2827 7.37103 38.7549 7.4481 38.2379L9.4061 27.5779C9.47709 27.2007 9.44978 26.8121 9.3267 26.448C9.20363 26.084 8.98878 25.7563 8.7021 25.4955L0.7271 17.9429C0.27435 17.5095 0.0145263 16.9182 0.00422463 16.2978C-0.00607704 15.6774 0.233978 15.0781 0.6721 14.6305H0.7271C1.10839 14.2112 1.63245 13.9427 2.2011 13.8752L13.2011 12.3C13.5918 12.2437 13.9633 12.0968 14.2846 11.8717C14.606 11.6465 14.8681 11.3495 15.0491 11.0052L19.7681 1.29471C19.9767 0.893285 20.2974 0.558367 20.6928 0.329097C21.0882 0.0998261 21.542 -0.0143273 22.0011 -2.39074e-05H22.2981C22.7034 0.0467478 23.0901 0.192829 23.4227 0.424756C23.7552 0.656682 24.0229 0.966992 24.2011 1.32708Z" fill="#73943D"/>
<path fill-rule="evenodd" clip-rule="evenodd" d="M21.9984 35.4218C21.5743 35.4413 21.1604 35.5557 20.7884 35.7563L10.9984 40.7518C10.422 41.0243 9.76194 41.0735 9.15018 40.8895C8.53843 40.7054 8.01997 40.3018 7.69839 39.7592C7.44727 39.3005 7.35463 38.7742 7.43439 38.2595L9.39239 27.6318C9.45822 27.2514 9.42851 26.861 9.30584 26.4944C9.18317 26.1278 8.97123 25.796 8.68839 25.5279L0.713387 17.9753C0.264005 17.5324 0.0117188 16.9331 0.0117188 16.3083C0.0117187 15.6835 0.264005 15.0841 0.713387 14.6413C1.08779 14.2711 1.57377 14.029 2.09939 13.9508L13.0994 12.3647C13.4912 12.3157 13.8643 12.1716 14.1851 11.9455C14.5058 11.7195 14.764 11.4186 14.9364 11.07L19.7984 1.2192C20.015 0.836901 20.3351 0.520732 20.7233 0.305586C21.1115 0.0904405 21.5528 -0.0153157 21.9984 -1.06918e-05C21.9984 0.647358 21.9984 34.9902 21.9984 35.4218Z" fill="white"/>
</g>
<defs>
<clipPath id="clip0_1_410">
<rect width="44" height="41" fill="white"/>
</clipPath>
</defs>
</svg>
