<svg width="44" height="36" viewBox="0 0 44 36" fill="none" xmlns="http://www.w3.org/2000/svg">
<path d="M44 4.26148C42.3825 4.98536 40.6417 5.47365 38.8152 5.69216C40.6801 4.56812 42.1101 2.78763 42.7844 0.663636C41.0401 1.70585 39.109 2.46211 37.0521 2.87036C35.406 1.10426 33.0596 0 30.4632 0C25.4784 0 21.4369 4.06904 21.4369 9.08858C21.4369 9.79987 21.5164 10.4932 21.6709 11.1595C14.1683 10.78 7.51599 7.16241 3.06356 1.66359C2.2865 3.00524 1.84171 4.56632 1.84171 6.2335C1.84171 9.38622 3.43511 12.1685 5.85738 13.7979C4.3783 13.7502 2.98585 13.3411 1.76847 12.6603C1.76757 12.6981 1.76757 12.7368 1.76757 12.7754C1.76757 17.1781 4.87936 20.8506 9.00936 21.6869C8.25195 21.8937 7.45436 22.0052 6.63086 22.0052C6.04852 22.0052 5.48314 21.9485 4.93206 21.8415C6.08156 25.452 9.41486 28.0804 13.3644 28.1533C10.275 30.5911 6.38345 32.0443 2.15342 32.0443C1.42549 32.0443 0.706494 32.0011 0 31.9166C3.99602 34.4965 8.74051 36 13.8378 36C30.4426 36 39.5217 22.1518 39.5217 10.1416C39.5217 9.74771 39.5136 9.35475 39.4967 8.96448C41.2598 7.68577 42.7907 6.08423 44 4.26148Z" fill="#8E8E8E"/>
</svg>
